<svg xmlns="http://www.w3.org/2000/svg" xmlns:xlink="http://www.w3.org/1999/xlink" viewBox="0 0 256 256"><defs><linearGradient id="b" x1="188.07" x2="67.93" y1="-14.947" y2="270.947" gradientTransform="matrix(1 0 0 -1 0 256)" gradientUnits="userSpaceOnUse"><stop offset="0" stop-color="#37d3fd"/><stop offset=".141" stop-color="#2ddbfd"/><stop offset=".382" stop-color="#11f1fe"/><stop offset=".511" stop-color="#0ff"/><stop offset=".819" stop-color="#13e2fb"/><stop offset="1" stop-color="#1bd7f9"/></linearGradient><linearGradient id="c" x1="102.264" x2="102.264" y1="75.741" y2="180.171" gradientTransform="matrix(1 0 0 -1 0 256)" gradientUnits="userSpaceOnUse"><stop offset="0" stop-color="#23fafc"/><stop offset="1" stop-color="#4ecbfe"/></linearGradient><linearGradient id="a" x1="201.232" x2="201.232" y1="82.369" y2="172.474" gradientTransform="matrix(1 0 0 -1 0 256)" gradientUnits="userSpaceOnUse"><stop offset="0" stop-color="#18a7ff"/><stop offset=".098" stop-color="#15b1ff"/><stop offset=".267" stop-color="#0ecdff"/><stop offset=".484" stop-color="#02f9ff"/><stop offset=".511" stop-color="#0ff"/><stop offset=".648" stop-color="#2fffeb"/><stop offset=".808" stop-color="#5fffd6"/><stop offset=".931" stop-color="#7effc9"/><stop offset="1" stop-color="#89ffc4"/></linearGradient><linearGradient xlink:href="#a" id="d" x1="225.055" x2="225.055" y1="82.369" y2="172.474"/><linearGradient xlink:href="#a" id="e" x1="162.187" x2="162.187" y1="82.369" y2="172.474"/></defs><rect width="249.408" height="249.408" x="3.296" y="3.296" rx="39.405"/><path d="M215.553 8A32.483 32.483 0 0 1 248 40.447v175.106A32.483 32.483 0 0 1 215.553 248H40.447A32.483 32.483 0 0 1 8 215.553V40.447A32.483 32.483 0 0 1 40.447 8h175.106m0-8H40.447A40.566 40.566 0 0 0 0 40.447v175.106A40.566 40.566 0 0 0 40.447 256h175.106A40.566 40.566 0 0 0 256 215.553V40.447A40.566 40.566 0 0 0 215.553 0Z" style="fill:url(#b)"/><path d="M33.136 75.829v104.43h138.256V75.829Zm131.269 97.443-62.141-45.228 62.141-45.229Z" style="fill:url(#c)"/><path d="M40.122 82.771v90.458L102.264 128 40.122 82.771z" style="fill:#41a1fb"/><path d="m102.264 128.044 62.141-45.229" style="fill:#55d0fd"/><path d="M40.122 173.272h124.283l-62.141-45.228-62.142 45.228z" style="fill:#015ef7"/><path d="M194.416 93.427v69.146l13.631 8.816V84.611l-13.631 8.816z" style="fill:url(#a)"/><path d="M219.047 77.497v101.006l12.016 7.771V69.726l-12.016 7.771z" style="fill:url(#d)"/><path d="m140.958 128 42.458 27.459v-54.918L140.958 128z" style="fill:url(#e)"/></svg>