<svg xmlns="http://www.w3.org/2000/svg" xmlns:xlink="http://www.w3.org/1999/xlink" viewBox="0 0 1024 1024"><defs><linearGradient id="b" x1="992.915" x2="31.184" y1="63.622" y2="960.453" gradientTransform="matrix(1 0 0 -1 0 1024)" gradientUnits="userSpaceOnUse"><stop offset="0" stop-color="#f44d0b"/><stop offset="1" stop-color="#fce815"/></linearGradient><linearGradient id="c" x1="618.958" x2="618.958" y1="267.38" y2="657.89" gradientTransform="matrix(1 0 0 -1 0 1024)" gradientUnits="userSpaceOnUse"><stop offset="0" stop-color="#f56e0a"/><stop offset="1" stop-color="#ff9d25"/></linearGradient><linearGradient id="d" x1="416.216" x2="416.216" y1="251.884" y2="604.08" gradientTransform="matrix(1 0 0 -1 0 1024)" gradientUnits="userSpaceOnUse"><stop offset="0" stop-color="#f68b0d"/><stop offset="1" stop-color="#fee271"/></linearGradient><linearGradient id="a" x1="331.169" x2="700.089" y1="735.117" y2="578.517" gradientTransform="matrix(1 0 0 -1 0 1024)" gradientUnits="userSpaceOnUse"><stop offset="0" stop-color="#fff586"/><stop offset="1" stop-color="#ff9c24"/></linearGradient><linearGradient xlink:href="#a" id="e" x1="305.694" x2="674.521" y1="675.037" y2="518.491"/><linearGradient xlink:href="#a" id="f" x1="345.8" x2="714.73" y1="769.58" y2="612.98"/><linearGradient xlink:href="#a" id="g" x1="335.136" x2="704.066" y1="744.471" y2="587.871"/><linearGradient xlink:href="#a" id="h" x1="345.023" x2="713.943" y1="767.748" y2="611.148"/><linearGradient id="i" x1="788.261" x2="239.739" y1="247.249" y2="758.751" gradientTransform="matrix(1 0 0 -1 0 1024)" gradientUnits="userSpaceOnUse"><stop offset="0" stop-color="#f45111"/><stop offset=".14" stop-color="#f45b0f"/><stop offset=".38" stop-color="#f6750c"/><stop offset=".69" stop-color="#f9a107"/><stop offset="1" stop-color="#fdd301"/></linearGradient><linearGradient id="j" x1="773.53" x2="252.101" y1="234.68" y2="773.77" gradientTransform="matrix(1 0 0 -1 0 1024)" gradientUnits="userSpaceOnUse"><stop offset="0" stop-color="#fff" stop-opacity=".05"/><stop offset=".44" stop-color="#fff" stop-opacity=".06"/><stop offset=".6" stop-color="#fff" stop-opacity=".08"/><stop offset=".71" stop-color="#fff" stop-opacity=".13"/><stop offset=".8" stop-color="#fff" stop-opacity=".2"/><stop offset=".88" stop-color="#fff" stop-opacity=".28"/><stop offset=".94" stop-color="#fff" stop-opacity=".39"/><stop offset="1" stop-color="#fff" stop-opacity=".5"/></linearGradient><linearGradient id="k" x1="514" x2="514" y1="172" y2="832" gradientTransform="matrix(1 0 0 -1 0 1024)" gradientUnits="userSpaceOnUse"><stop offset="0" stop-color="#f48311"/><stop offset=".5" stop-color="#fbca04"/><stop offset="1" stop-color="#ffea93"/></linearGradient></defs><rect width="996.972" height="996.972" x="13.564" y="13.474" rx="155.777"/><path d="M864.05 29.96a129.942 129.942 0 0 1 130 130v704a129.942 129.942 0 0 1-130 130h-704a129.942 129.942 0 0 1-130-130v-704a129.942 129.942 0 0 1 130-130h704m0-30h-704a160 160 0 0 0-160 160v704a159.994 159.994 0 0 0 160 160h704a159.994 159.994 0 0 0 160-160v-704a160.007 160.007 0 0 0-160-160Z" style="fill:url(#b)"/><path d="M707.09 366.11c19.512 148.969-87.6 282.331-233.47 299.35 17.5 22.2 59.59 66.52 131.86 91.16 155.535-60.553 211.3-257.908 101.61-390.51Z" style="fill:url(#c)"/><path d="M417.29 419.92c-60.5.74-116.87 43.47-142.61 66.2-24.621 168.059 120.5 310.571 285.81 282.43-135.918-56.75-198.53-213.488-143.2-348.63Z" style="fill:url(#d)"/><path d="m690.07 377.72-60.66 82.16a268.029 268.029 0 0 1 26.78 30.48l30.82-41.73a254.342 254.342 0 0 0 3.06-70.91Z" style="fill:url(#a)"/><path d="M284 439.87a263.411 263.411 0 0 1 51.32-31.34l82.69-112.01C341.523 330.089 301.186 392.872 284 439.87Z" style="fill:url(#e)"/><path d="m571.78 282.41-78.54 106.38a261.028 261.028 0 0 1 40.99 11.19l77.21-104.59a239.416 239.416 0 0 0-39.66-12.98Z" style="fill:url(#f)"/><path d="m475.45 279.39-81.17 109.95a260.755 260.755 0 0 1 52.97-4.98l79.79-108.08s-28.584-.75-51.59 3.11Z" style="fill:url(#g)"/><path d="m643.82 312.1-75.85 102.85a265.521 265.521 0 0 1 33.63 21.21l74.31-100.63a249.277 249.277 0 0 0-32.09-23.44Z" style="fill:url(#h)"/><path d="M514 146c-207.11 0-375 167.89-375 375s167.89 375 375 375 375-167.89 375-375-167.89-375-375-375Zm0 711c-185.02 0-335-149.98-335-335s149.98-335 335-335 335 149.98 335 335-149.98 335-335 335Z" style="fill:url(#i);fill-rule:evenodd"/><path d="M514 146c-207.11 0-375 167.89-375 375s167.89 375 375 375 375-167.89 375-375-167.89-375-375-375Zm0 711c-185.02 0-335-149.98-335-335s149.98-335 335-335 335 149.98 335 335-149.98 335-335 335Z" style="fill:url(#j);fill-rule:evenodd"/><g style="opacity:.35"><path d="M514 207a313.99 313.99 0 1 1-122.61 24.75A313.079 313.079 0 0 1 514 207m0-15c-182.25 0-330 147.75-330 330s147.75 330 330 330 330-147.75 330-330-147.75-330-330-330Z" style="fill:url(#k)"/></g></svg>